<mxfile host="app.diagrams.net" modified="2021-09-14T14:06:04.568Z" agent="5.0 (Windows NT 10.0; Win64; x64) AppleWebKit/537.36 (KHTML, like Gecko) Chrome/93.0.4577.63 Safari/537.36 Edg/93.0.961.47" etag="5UadLdR5A8Y7R2UnuSNn" version="15.0.6" type="github">
  <diagram id="rFSmHOf4JIZwq2PaouvO" name="第 1 页">
    <mxGraphModel dx="2526" dy="842" grid="1" gridSize="10" guides="1" tooltips="1" connect="1" arrows="1" fold="1" page="1" pageScale="1" pageWidth="3300" pageHeight="4681" math="0" shadow="0">
      <root>
        <mxCell id="0" />
        <mxCell id="1" parent="0" />
        <mxCell id="OAN4mnjUgR2hKjmmpbOc-35" value="" style="rounded=1;whiteSpace=wrap;html=1;labelBackgroundColor=none;fontSize=16;verticalAlign=middle;fillColor=#f5f5f5;strokeColor=#666666;fontColor=#333333;" vertex="1" parent="1">
          <mxGeometry x="620" y="160" width="840" height="400" as="geometry" />
        </mxCell>
        <mxCell id="OAN4mnjUgR2hKjmmpbOc-5" value="&lt;b class=&quot;cs_cursor&quot; style=&quot;font-size: 18px&quot;&gt;&lt;font face=&quot;JetBrains Mono&quot; style=&quot;font-size: 18px&quot; color=&quot;#cc0000&quot;&gt;物理内存&lt;/font&gt;&lt;/b&gt;" style="rounded=1;whiteSpace=wrap;html=1;verticalAlign=bottom;fillColor=#bac8d3;strokeColor=#23445d;sketch=0;" vertex="1" parent="1">
          <mxGeometry x="840" y="400" width="350" height="150" as="geometry" />
        </mxCell>
        <mxCell id="OAN4mnjUgR2hKjmmpbOc-6" value="read-only" style="rounded=1;whiteSpace=wrap;html=1;fontSize=18;verticalAlign=top;fontStyle=1;fillColor=#b1ddf0;strokeColor=#10739e;sketch=0;" vertex="1" parent="1">
          <mxGeometry x="965" y="410" width="120" height="110" as="geometry" />
        </mxCell>
        <mxCell id="OAN4mnjUgR2hKjmmpbOc-1" value="&lt;b class=&quot;cs_cursor&quot; style=&quot;font-size: 18px&quot;&gt;&lt;font face=&quot;JetBrains Mono&quot; style=&quot;font-size: 18px&quot; color=&quot;#990000&quot;&gt;主进程&lt;/font&gt;&lt;/b&gt;" style="rounded=1;whiteSpace=wrap;html=1;verticalAlign=top;fillColor=#bac8d3;strokeColor=#23445d;sketch=0;" vertex="1" parent="1">
          <mxGeometry x="650" y="170" width="240" height="200" as="geometry" />
        </mxCell>
        <mxCell id="OAN4mnjUgR2hKjmmpbOc-4" value="" style="edgeStyle=orthogonalEdgeStyle;rounded=0;orthogonalLoop=1;jettySize=auto;html=1;entryX=0;entryY=0.5;entryDx=0;entryDy=0;exitX=0.5;exitY=1;exitDx=0;exitDy=0;sketch=0;" edge="1" parent="1" source="OAN4mnjUgR2hKjmmpbOc-2" target="OAN4mnjUgR2hKjmmpbOc-3">
          <mxGeometry relative="1" as="geometry" />
        </mxCell>
        <mxCell id="OAN4mnjUgR2hKjmmpbOc-2" value="" style="ellipse;whiteSpace=wrap;html=1;verticalAlign=top;fillColor=#f8cecc;strokeColor=#b85450;sketch=0;" vertex="1" parent="1">
          <mxGeometry x="680" y="240" width="70" height="30" as="geometry" />
        </mxCell>
        <mxCell id="OAN4mnjUgR2hKjmmpbOc-21" style="rounded=0;orthogonalLoop=1;jettySize=auto;html=1;exitX=1;exitY=0.5;exitDx=0;exitDy=0;entryX=0;entryY=0.25;entryDx=0;entryDy=0;fontSize=18;sketch=0;" edge="1" parent="1" source="OAN4mnjUgR2hKjmmpbOc-3" target="OAN4mnjUgR2hKjmmpbOc-7">
          <mxGeometry relative="1" as="geometry" />
        </mxCell>
        <mxCell id="OAN4mnjUgR2hKjmmpbOc-23" style="edgeStyle=none;rounded=0;orthogonalLoop=1;jettySize=auto;html=1;exitX=1;exitY=0.5;exitDx=0;exitDy=0;entryX=0;entryY=0.5;entryDx=0;entryDy=0;fontSize=18;sketch=0;" edge="1" parent="1" source="OAN4mnjUgR2hKjmmpbOc-3" target="OAN4mnjUgR2hKjmmpbOc-9">
          <mxGeometry relative="1" as="geometry" />
        </mxCell>
        <mxCell id="OAN4mnjUgR2hKjmmpbOc-29" style="edgeStyle=orthogonalEdgeStyle;rounded=0;orthogonalLoop=1;jettySize=auto;html=1;exitX=0.5;exitY=1;exitDx=0;exitDy=0;entryX=0;entryY=0.5;entryDx=0;entryDy=0;dashed=1;fontSize=18;sketch=0;" edge="1" parent="1" source="OAN4mnjUgR2hKjmmpbOc-3" target="OAN4mnjUgR2hKjmmpbOc-27">
          <mxGeometry relative="1" as="geometry" />
        </mxCell>
        <mxCell id="OAN4mnjUgR2hKjmmpbOc-3" value="&lt;b style=&quot;font-size: 18px;&quot;&gt;页表&lt;/b&gt;" style="whiteSpace=wrap;html=1;verticalAlign=middle;fontSize=18;fillColor=#d5e8d4;strokeColor=#82b366;sketch=0;" vertex="1" parent="1">
          <mxGeometry x="760" y="300" width="100" height="40" as="geometry" />
        </mxCell>
        <mxCell id="OAN4mnjUgR2hKjmmpbOc-7" value="&lt;b&gt;数据A&lt;/b&gt;" style="rounded=1;whiteSpace=wrap;html=1;fontSize=18;verticalAlign=middle;fillColor=#fad9d5;strokeColor=#ae4132;sketch=0;" vertex="1" parent="1">
          <mxGeometry x="985" y="442" width="80" height="30" as="geometry" />
        </mxCell>
        <mxCell id="OAN4mnjUgR2hKjmmpbOc-28" style="edgeStyle=none;rounded=0;orthogonalLoop=1;jettySize=auto;html=1;exitX=0;exitY=0.5;exitDx=0;exitDy=0;entryX=1;entryY=0.5;entryDx=0;entryDy=0;fontSize=18;dashed=1;sketch=0;" edge="1" parent="1" source="OAN4mnjUgR2hKjmmpbOc-9" target="OAN4mnjUgR2hKjmmpbOc-27">
          <mxGeometry relative="1" as="geometry" />
        </mxCell>
        <mxCell id="OAN4mnjUgR2hKjmmpbOc-9" value="&lt;b&gt;数据B&lt;/b&gt;" style="rounded=1;whiteSpace=wrap;html=1;fontSize=18;verticalAlign=middle;fillColor=#fad9d5;strokeColor=#ae4132;sketch=0;" vertex="1" parent="1">
          <mxGeometry x="985" y="482" width="80" height="30" as="geometry" />
        </mxCell>
        <mxCell id="OAN4mnjUgR2hKjmmpbOc-12" value="&lt;font color=&quot;#990000&quot; face=&quot;JetBrains Mono&quot;&gt;&lt;span style=&quot;font-size: 18px&quot;&gt;&lt;b&gt;子进程&lt;/b&gt;&lt;/span&gt;&lt;/font&gt;" style="rounded=1;whiteSpace=wrap;html=1;verticalAlign=top;fillColor=#bac8d3;strokeColor=#23445d;sketch=0;" vertex="1" parent="1">
          <mxGeometry x="1130" y="170" width="240" height="200" as="geometry" />
        </mxCell>
        <mxCell id="OAN4mnjUgR2hKjmmpbOc-13" value="" style="edgeStyle=orthogonalEdgeStyle;rounded=0;orthogonalLoop=1;jettySize=auto;html=1;entryX=1;entryY=0.5;entryDx=0;entryDy=0;exitX=0;exitY=1;exitDx=0;exitDy=0;sketch=0;" edge="1" parent="1" source="OAN4mnjUgR2hKjmmpbOc-14" target="OAN4mnjUgR2hKjmmpbOc-15">
          <mxGeometry relative="1" as="geometry">
            <Array as="points">
              <mxPoint x="1280" y="266" />
              <mxPoint x="1280" y="320" />
            </Array>
          </mxGeometry>
        </mxCell>
        <mxCell id="OAN4mnjUgR2hKjmmpbOc-32" style="edgeStyle=orthogonalEdgeStyle;rounded=0;orthogonalLoop=1;jettySize=auto;html=1;exitX=0.5;exitY=1;exitDx=0;exitDy=0;entryX=0.5;entryY=0;entryDx=0;entryDy=0;fontSize=18;strokeWidth=2;sketch=0;" edge="1" parent="1" source="OAN4mnjUgR2hKjmmpbOc-14" target="OAN4mnjUgR2hKjmmpbOc-31">
          <mxGeometry relative="1" as="geometry" />
        </mxCell>
        <mxCell id="OAN4mnjUgR2hKjmmpbOc-14" value="" style="ellipse;whiteSpace=wrap;html=1;verticalAlign=top;fillColor=#f8cecc;strokeColor=#b85450;sketch=0;" vertex="1" parent="1">
          <mxGeometry x="1275" y="240" width="70" height="30" as="geometry" />
        </mxCell>
        <mxCell id="OAN4mnjUgR2hKjmmpbOc-24" style="edgeStyle=none;rounded=0;orthogonalLoop=1;jettySize=auto;html=1;exitX=0;exitY=0.5;exitDx=0;exitDy=0;entryX=1;entryY=0.5;entryDx=0;entryDy=0;fontSize=18;sketch=0;" edge="1" parent="1" source="OAN4mnjUgR2hKjmmpbOc-15" target="OAN4mnjUgR2hKjmmpbOc-7">
          <mxGeometry relative="1" as="geometry" />
        </mxCell>
        <mxCell id="OAN4mnjUgR2hKjmmpbOc-25" style="edgeStyle=none;rounded=0;orthogonalLoop=1;jettySize=auto;html=1;exitX=0;exitY=0.5;exitDx=0;exitDy=0;entryX=1;entryY=0.75;entryDx=0;entryDy=0;fontSize=18;sketch=0;" edge="1" parent="1" source="OAN4mnjUgR2hKjmmpbOc-15" target="OAN4mnjUgR2hKjmmpbOc-9">
          <mxGeometry relative="1" as="geometry" />
        </mxCell>
        <mxCell id="OAN4mnjUgR2hKjmmpbOc-15" value="&lt;b style=&quot;font-size: 18px;&quot;&gt;页表&lt;/b&gt;" style="whiteSpace=wrap;html=1;verticalAlign=middle;fontSize=18;fillColor=#d5e8d4;strokeColor=#82b366;sketch=0;" vertex="1" parent="1">
          <mxGeometry x="1160" y="300" width="100" height="40" as="geometry" />
        </mxCell>
        <mxCell id="OAN4mnjUgR2hKjmmpbOc-18" value="" style="html=1;shadow=0;dashed=0;align=center;verticalAlign=middle;shape=mxgraph.arrows2.arrow;dy=0.6;dx=40;notch=0;fontSize=18;labelBorderColor=none;fillColor=#647687;strokeColor=#314354;fontColor=#ffffff;sketch=0;" vertex="1" parent="1">
          <mxGeometry x="910" y="255" width="210" height="30" as="geometry" />
        </mxCell>
        <mxCell id="OAN4mnjUgR2hKjmmpbOc-19" value="&lt;font style=&quot;font-size: 25px&quot;&gt;fork&lt;/font&gt;" style="text;html=1;align=center;verticalAlign=middle;resizable=0;points=[];autosize=1;strokeColor=none;fillColor=none;fontSize=18;sketch=0;" vertex="1" parent="1">
          <mxGeometry x="970" y="225" width="60" height="30" as="geometry" />
        </mxCell>
        <mxCell id="OAN4mnjUgR2hKjmmpbOc-20" value="&lt;b&gt;页表复制&lt;/b&gt;" style="text;html=1;align=center;verticalAlign=middle;resizable=0;points=[];autosize=1;strokeColor=none;fillColor=none;fontSize=18;sketch=0;" vertex="1" parent="1">
          <mxGeometry x="960" y="285" width="90" height="30" as="geometry" />
        </mxCell>
        <mxCell id="OAN4mnjUgR2hKjmmpbOc-27" value="数据B副本" style="rounded=1;whiteSpace=wrap;html=1;fontSize=18;verticalAlign=middle;fillColor=#d0cee2;strokeColor=#56517e;sketch=0;" vertex="1" parent="1">
          <mxGeometry x="850" y="490" width="100" height="40" as="geometry" />
        </mxCell>
        <mxCell id="OAN4mnjUgR2hKjmmpbOc-30" value="&lt;b&gt;写操作&lt;/b&gt;" style="text;html=1;align=center;verticalAlign=middle;resizable=0;points=[];autosize=1;strokeColor=none;fillColor=none;fontSize=18;sketch=0;" vertex="1" parent="1">
          <mxGeometry x="735" y="440" width="70" height="30" as="geometry" />
        </mxCell>
        <mxCell id="OAN4mnjUgR2hKjmmpbOc-31" value="磁盘" style="shape=datastore;whiteSpace=wrap;html=1;rounded=1;shadow=0;glass=0;labelBackgroundColor=none;sketch=0;disableMultiStroke=0;disableMultiStrokeFill=0;fontFamily=JetBrains Mono;fontSize=14;fillColor=#b0e3e6;verticalAlign=middle;strokeColor=#0e8088;" vertex="1" parent="1">
          <mxGeometry x="1255" y="470" width="110" height="40" as="geometry" />
        </mxCell>
        <mxCell id="OAN4mnjUgR2hKjmmpbOc-33" value="以新的 .rdb 文件&lt;br style=&quot;font-size: 16px;&quot;&gt;替换旧的文件" style="text;html=1;align=center;verticalAlign=middle;resizable=0;points=[];autosize=1;strokeColor=none;fillColor=none;fontSize=16;fontStyle=1;sketch=0;" vertex="1" parent="1">
          <mxGeometry x="1320" y="405" width="130" height="40" as="geometry" />
        </mxCell>
        <mxCell id="OAN4mnjUgR2hKjmmpbOc-43" value="" style="group" vertex="1" connectable="0" parent="1">
          <mxGeometry x="1470" y="270" width="315" height="207.5" as="geometry" />
        </mxCell>
        <mxCell id="OAN4mnjUgR2hKjmmpbOc-36" value="" style="whiteSpace=wrap;html=1;shape=mxgraph.basic.document;rounded=1;shadow=0;glass=0;labelBackgroundColor=none;sketch=1;disableMultiStroke=0;disableMultiStrokeFill=0;fontFamily=Courier New;fontSize=14;fillColor=#ffff88;verticalAlign=middle;strokeColor=#36393d;" vertex="1" parent="OAN4mnjUgR2hKjmmpbOc-43">
          <mxGeometry y="-40" width="290" height="235" as="geometry" />
        </mxCell>
        <mxCell id="OAN4mnjUgR2hKjmmpbOc-37" value="fork 主进程得到一个子进程&lt;br&gt;共享内存空间" style="text;html=1;align=center;verticalAlign=middle;resizable=0;points=[];autosize=1;strokeColor=none;fillColor=none;fontSize=16;" vertex="1" parent="OAN4mnjUgR2hKjmmpbOc-43">
          <mxGeometry x="50" width="210" height="40" as="geometry" />
        </mxCell>
        <mxCell id="OAN4mnjUgR2hKjmmpbOc-38" value="子进程读取内存数据并写入新RDB文件" style="text;html=1;align=center;verticalAlign=middle;resizable=0;points=[];autosize=1;strokeColor=none;fillColor=none;fontSize=16;" vertex="1" parent="OAN4mnjUgR2hKjmmpbOc-43">
          <mxGeometry y="90" width="290" height="20" as="geometry" />
        </mxCell>
        <mxCell id="OAN4mnjUgR2hKjmmpbOc-39" value="用新的RDB文件替换旧的RDB文件" style="text;html=1;align=center;verticalAlign=middle;resizable=0;points=[];autosize=1;strokeColor=none;fillColor=none;fontSize=16;" vertex="1" parent="OAN4mnjUgR2hKjmmpbOc-43">
          <mxGeometry x="25" y="160" width="260" height="20" as="geometry" />
        </mxCell>
        <mxCell id="OAN4mnjUgR2hKjmmpbOc-40" value="" style="endArrow=classic;html=1;fontSize=16;strokeWidth=2;" edge="1" parent="OAN4mnjUgR2hKjmmpbOc-43">
          <mxGeometry width="50" height="50" relative="1" as="geometry">
            <mxPoint x="159" y="40" as="sourcePoint" />
            <mxPoint x="159" y="80" as="targetPoint" />
          </mxGeometry>
        </mxCell>
        <mxCell id="OAN4mnjUgR2hKjmmpbOc-42" value="" style="endArrow=classic;html=1;fontSize=16;strokeWidth=2;" edge="1" parent="OAN4mnjUgR2hKjmmpbOc-43">
          <mxGeometry width="50" height="50" relative="1" as="geometry">
            <mxPoint x="159" y="120" as="sourcePoint" />
            <mxPoint x="159" y="160" as="targetPoint" />
          </mxGeometry>
        </mxCell>
      </root>
    </mxGraphModel>
  </diagram>
</mxfile>
